<svg width="43" height="45" viewBox="0 0 43 45" fill="none" xmlns="http://www.w3.org/2000/svg">
<path d="M16.2947 17C12.5304 7.25 17.8631 2.9375 21 2C24.1369 2.9375 29.4696 7.25 25.7053 17C25.1369 16.6875 23.4 16.0625 21 16.0625C18.6 16.0625 16.8631 16.6875 16.2947 17Z" stroke="#FCFCFF" stroke-width="1.5" stroke-linecap="round" stroke-linejoin="round"/>
<path d="M23 9C23 7.89543 22.1046 7 21 7C19.8954 7 19 7.89543 19 9C19 10.1046 19.8954 11 21 11C22.1046 11 23 10.1046 23 9Z" stroke="#FCFCFF" stroke-width="1.5"/>
<path d="M26.5 15.5576C27.9421 15.6908 29.7078 16.0822 30.9814 17C30.9814 17 31.5044 12.0642 27 11" stroke="#FCFCFF" stroke-width="1.5" stroke-linecap="round" stroke-linejoin="round"/>
<path d="M15.5 15.5576C14.0579 15.6908 12.2922 16.0822 11.0186 17C11.0186 17 10.4956 12.0642 15 11" stroke="#FCFCFF" stroke-width="1.5" stroke-linecap="round" stroke-linejoin="round"/>
<path d="M18.5 19C18.5 19 18.9167 21.5 21 22C23.0833 21.5 23.5 19 23.5 19" stroke="#FCFCFF" stroke-width="1.5" stroke-linecap="round" stroke-linejoin="round"/>
<path d="M0.399711 42V32.2H4.06771C4.89838 32.2 5.61238 32.3353 6.20971 32.606C6.80704 32.8673 7.26438 33.25 7.58171 33.754C7.90838 34.2487 8.07171 34.8507 8.07171 35.56C8.07171 36.2507 7.90838 36.848 7.58171 37.352C7.26438 37.8467 6.80704 38.2293 6.20971 38.5C5.61238 38.7707 4.89838 38.906 4.06771 38.906H0.973711L1.43571 38.416V42H0.399711ZM1.43571 38.5L0.973711 37.996H4.03971C5.01971 37.996 5.76171 37.786 6.26571 37.366C6.77904 36.9367 7.03571 36.3347 7.03571 35.56C7.03571 34.776 6.77904 34.1693 6.26571 33.74C5.76171 33.3107 5.01971 33.096 4.03971 33.096H0.973711L1.43571 32.606V38.5ZM13.0568 42.07C12.3475 42.07 11.7081 41.9113 11.1388 41.594C10.5788 41.2673 10.1355 40.824 9.8088 40.264C9.48214 39.6947 9.3188 39.046 9.3188 38.318C9.3188 37.5807 9.48214 36.932 9.8088 36.372C10.1355 35.812 10.5788 35.3733 11.1388 35.056C11.6988 34.7387 12.3381 34.58 13.0568 34.58C13.7848 34.58 14.4288 34.7387 14.9888 35.056C15.5581 35.3733 16.0015 35.812 16.3188 36.372C16.6455 36.932 16.8088 37.5807 16.8088 38.318C16.8088 39.046 16.6455 39.6947 16.3188 40.264C16.0015 40.824 15.5581 41.2673 14.9888 41.594C14.4195 41.9113 13.7755 42.07 13.0568 42.07ZM13.0568 41.188C13.5888 41.188 14.0601 41.0713 14.4708 40.838C14.8815 40.5953 15.2035 40.2593 15.4368 39.83C15.6795 39.3913 15.8008 38.8873 15.8008 38.318C15.8008 37.7393 15.6795 37.2353 15.4368 36.806C15.2035 36.3767 14.8815 36.0453 14.4708 35.812C14.0601 35.5693 13.5935 35.448 13.0708 35.448C12.5481 35.448 12.0815 35.5693 11.6708 35.812C11.2601 36.0453 10.9335 36.3767 10.6908 36.806C10.4481 37.2353 10.3268 37.7393 10.3268 38.318C10.3268 38.8873 10.4481 39.3913 10.6908 39.83C10.9335 40.2593 11.2601 40.5953 11.6708 40.838C12.0815 41.0713 12.5435 41.188 13.0568 41.188ZM18.8381 42V34.65H19.8321V42H18.8381ZM19.3421 33.026C19.1368 33.026 18.9641 32.956 18.8241 32.816C18.6841 32.676 18.6141 32.508 18.6141 32.312C18.6141 32.116 18.6841 31.9527 18.8241 31.822C18.9641 31.682 19.1368 31.612 19.3421 31.612C19.5475 31.612 19.7201 31.6773 19.8601 31.808C20.0001 31.9387 20.0701 32.102 20.0701 32.298C20.0701 32.5033 20.0001 32.676 19.8601 32.816C19.7295 32.956 19.5568 33.026 19.3421 33.026ZM26.3499 34.58C26.9472 34.58 27.4699 34.6967 27.9179 34.93C28.3752 35.154 28.7299 35.4993 28.9819 35.966C29.2432 36.4327 29.3739 37.0207 29.3739 37.73V42H28.3799V37.828C28.3799 37.0533 28.1839 36.47 27.7919 36.078C27.4092 35.6767 26.8679 35.476 26.1679 35.476C25.6452 35.476 25.1879 35.5833 24.7959 35.798C24.4132 36.0033 24.1146 36.3067 23.8999 36.708C23.6946 37.1 23.5919 37.576 23.5919 38.136V42H22.5979V34.65H23.5499V36.666L23.3959 36.288C23.6292 35.756 24.0026 35.3407 24.5159 35.042C25.0292 34.734 25.6406 34.58 26.3499 34.58ZM34.3829 42.07C33.6922 42.07 33.1602 41.8833 32.7869 41.51C32.4135 41.1367 32.2269 40.6093 32.2269 39.928V33.026H33.2209V39.872C33.2209 40.3013 33.3282 40.6327 33.5429 40.866C33.7669 41.0993 34.0842 41.216 34.4949 41.216C34.9335 41.216 35.2975 41.09 35.5869 40.838L35.9369 41.552C35.7409 41.7293 35.5029 41.86 35.2229 41.944C34.9522 42.028 34.6722 42.07 34.3829 42.07ZM30.9109 35.476V34.65H35.4609V35.476H30.9109ZM39.7204 42.07C39.1137 42.07 38.5397 41.986 37.9984 41.818C37.457 41.6407 37.0324 41.4213 36.7244 41.16L37.1724 40.376C37.471 40.6 37.8537 40.796 38.3204 40.964C38.787 41.1227 39.277 41.202 39.7904 41.202C40.4904 41.202 40.9944 41.0947 41.3024 40.88C41.6104 40.656 41.7644 40.362 41.7644 39.998C41.7644 39.7273 41.6757 39.5173 41.4984 39.368C41.3304 39.2093 41.1064 39.0927 40.8264 39.018C40.5464 38.934 40.2337 38.864 39.8884 38.808C39.543 38.752 39.1977 38.6867 38.8524 38.612C38.5164 38.5373 38.2084 38.43 37.9284 38.29C37.6484 38.1407 37.4197 37.94 37.2424 37.688C37.0744 37.436 36.9904 37.1 36.9904 36.68C36.9904 36.2787 37.1024 35.9193 37.3264 35.602C37.5504 35.2847 37.877 35.0373 38.3064 34.86C38.745 34.6733 39.277 34.58 39.9024 34.58C40.3784 34.58 40.8544 34.6453 41.3304 34.776C41.8064 34.8973 42.1984 35.0607 42.5064 35.266L42.0724 36.064C41.7457 35.84 41.3957 35.6813 41.0224 35.588C40.649 35.4853 40.2757 35.434 39.9024 35.434C39.2397 35.434 38.7497 35.5507 38.4324 35.784C38.1244 36.008 37.9704 36.2973 37.9704 36.652C37.9704 36.932 38.0544 37.1513 38.2224 37.31C38.3997 37.4687 38.6284 37.5947 38.9084 37.688C39.1977 37.772 39.5104 37.842 39.8464 37.898C40.1917 37.954 40.5324 38.024 40.8684 38.108C41.2137 38.1827 41.5264 38.29 41.8064 38.43C42.0957 38.5607 42.3244 38.752 42.4924 39.004C42.6697 39.2467 42.7584 39.5687 42.7584 39.97C42.7584 40.3993 42.637 40.7727 42.3944 41.09C42.161 41.398 41.8157 41.6407 41.3584 41.818C40.9104 41.986 40.3644 42.07 39.7204 42.07Z" fill="#FCFCFF"/>
</svg>
