<svg width="40" height="40" viewBox="0 0 40 40" fill="none" xmlns="http://www.w3.org/2000/svg">
<path d="M20.5 26.25C19.0009 26.9502 17.0317 27.375 14.875 27.375C13.6758 27.375 12.5346 27.2437 11.5 27.0067C10.8349 26.8543 10.5023 26.7782 10.1039 26.4629C9.87658 26.283 9.59293 25.9271 9.46838 25.6654C9.25 25.2066 9.25 24.7616 9.25 23.8718V11.7532C9.25 10.6453 10.42 9.88432 11.5 10.1317C12.5346 10.3687 13.6758 10.5 14.875 10.5C17.0317 10.5 19.0009 10.0752 20.5 9.375C21.9991 8.67484 23.9683 8.25 26.125 8.25C27.3242 8.25 28.4654 8.38134 29.5 8.61832C30.1651 8.77066 30.4977 8.84683 30.8961 9.16213C31.1234 9.34197 31.4071 9.69793 31.5316 9.95962C31.75 10.4184 31.75 10.8634 31.75 11.7532V23.8718C31.75 24.9797 30.58 25.7407 29.5 25.4933C28.4654 25.2563 27.3242 25.125 26.125 25.125C23.9683 25.125 21.9991 25.5498 20.5 26.25Z" stroke="#EADD1E" stroke-width="1.5"/>
<path d="M9.25 29.625C10.7491 30.3252 12.7183 30.75 14.875 30.75C17.0317 30.75 19.0009 30.3252 20.5 29.625C21.9991 28.9248 23.9683 28.5 26.125 28.5C28.2817 28.5 30.2509 28.9248 31.75 29.625" stroke="#EADD1E" stroke-width="1.5" stroke-linecap="round"/>
<path d="M23.3125 17.8125C23.3125 19.3658 22.0533 20.625 20.5 20.625C18.9467 20.625 17.6875 19.3658 17.6875 17.8125C17.6875 16.2592 18.9467 15 20.5 15C22.0533 15 23.3125 16.2592 23.3125 17.8125Z" stroke="#EADD1E" stroke-width="1.5"/>
<path d="M13.1875 18.9375L13.1875 18.9476" stroke="#EADD1E" stroke-width="2" stroke-linecap="round" stroke-linejoin="round"/>
<path d="M27.8125 16.6787L27.8125 16.6888" stroke="#EADD1E" stroke-width="2" stroke-linecap="round" stroke-linejoin="round"/>
<circle cx="20" cy="20" r="19.5" stroke="#EADD1E"/>
</svg>
