<svg width="40" height="40" viewBox="0 0 40 40" fill="none" xmlns="http://www.w3.org/2000/svg">
<circle cx="20" cy="20" r="19.5" stroke="#EADD1E"/>
<path d="M19.3083 34.84V4.76H20.9083V34.84H19.3083ZM19.9803 31.192C18.3163 31.192 16.7163 30.9253 15.1803 30.392C13.6656 29.8373 12.4923 29.1333 11.6603 28.28L12.5883 26.456C13.3776 27.224 14.4336 27.8747 15.7563 28.408C17.1003 28.92 18.5083 29.176 19.9803 29.176C21.3883 29.176 22.5296 29.0053 23.4043 28.664C24.3003 28.3013 24.9509 27.8213 25.3563 27.224C25.7829 26.6267 25.9963 25.9653 25.9963 25.24C25.9963 24.3653 25.7403 23.6613 25.2283 23.128C24.7376 22.5947 24.0869 22.1787 23.2763 21.88C22.4656 21.56 21.5696 21.2827 20.5883 21.048C19.6069 20.8133 18.6256 20.568 17.6443 20.312C16.6629 20.0347 15.7563 19.672 14.9243 19.224C14.1136 18.776 13.4523 18.1893 12.9403 17.464C12.4496 16.7173 12.2043 15.7467 12.2043 14.552C12.2043 13.4427 12.4923 12.4293 13.0683 11.512C13.6656 10.5733 14.5723 9.82667 15.7883 9.272C17.0043 8.696 18.5616 8.408 20.4603 8.408C21.7189 8.408 22.9669 8.58933 24.2043 8.952C25.4416 9.29333 26.5083 9.77333 27.4043 10.392L26.6042 12.28C25.6443 11.64 24.6203 11.1707 23.5323 10.872C22.4656 10.5733 21.4309 10.424 20.4283 10.424C19.0843 10.424 17.9749 10.6053 17.1003 10.968C16.2256 11.3307 15.5749 11.8213 15.1483 12.44C14.7429 13.0373 14.5403 13.72 14.5403 14.488C14.5403 15.3627 14.7856 16.0667 15.2763 16.6C15.7883 17.1333 16.4496 17.5493 17.2603 17.848C18.0923 18.1467 18.9989 18.4133 19.9803 18.648C20.9616 18.8827 21.9323 19.1387 22.8923 19.416C23.8736 19.6933 24.7696 20.056 25.5803 20.504C26.4123 20.9307 27.0736 21.5067 27.5643 22.232C28.0763 22.9573 28.3323 23.9067 28.3323 25.08C28.3323 26.168 28.0336 27.1813 27.4363 28.12C26.8389 29.0373 25.9216 29.784 24.6843 30.36C23.4683 30.9147 21.9003 31.192 19.9803 31.192Z" fill="#EADD1E"/>
</svg>
