<svg width="25" height="25" viewBox="0 0 25 25" fill="none" xmlns="http://www.w3.org/2000/svg">
<path d="M3.42188 12.8472H8.42188M3.42188 12.8472C3.42188 17.8177 7.45131 21.8472 12.4219 21.8472M3.42188 12.8472C3.42188 7.87661 7.45131 3.84717 12.4219 3.84717M8.42188 12.8472H16.4219M8.42188 12.8472C8.42188 17.8177 10.2127 21.8472 12.4219 21.8472M8.42188 12.8472C8.42188 7.87661 10.2127 3.84717 12.4219 3.84717M16.4219 12.8472H21.4219M16.4219 12.8472C16.4219 7.87661 14.631 3.84717 12.4219 3.84717M16.4219 12.8472C16.4219 17.8177 14.631 21.8472 12.4219 21.8472M21.4219 12.8472C21.4219 7.87661 17.3924 3.84717 12.4219 3.84717M21.4219 12.8472C21.4219 17.8177 17.3924 21.8472 12.4219 21.8472" stroke="#DFF4FF" stroke-width="2" stroke-linecap="round" stroke-linejoin="round"/>
</svg>
