<svg width="42" height="49" viewBox="0 0 42 49" fill="none" xmlns="http://www.w3.org/2000/svg">
<path d="M18.0617 4.82633L12.2391 9.92134C11.7398 10.3583 12.0746 11.1343 12.7624 11.1343C13.1826 11.1343 13.5232 11.4489 13.5232 11.8371V15.0806C13.5232 17.871 13.5232 19.2662 14.4618 20.1331C15.4003 21 16.9108 21 19.9319 21H22.0681C25.0892 21 26.5997 21 27.5382 20.1331C28.4768 19.2662 28.4768 17.871 28.4768 15.0806V11.8371C28.4768 11.4489 28.8174 11.1343 29.2376 11.1343C29.9254 11.1343 30.2602 10.3583 29.7609 9.92134L23.9383 4.82633C22.5469 3.60878 21.8512 3 21 3C20.1488 3 19.4531 3.60878 18.0617 4.82633Z" stroke="white" stroke-width="1.5" stroke-linecap="round" stroke-linejoin="round"/>
<path d="M21 16H21.009" stroke="white" stroke-width="2" stroke-linecap="round" stroke-linejoin="round"/>
<path d="M8.71905 33.242V43H7.44505V38.576H2.47505V43H1.20105V33.242H2.47505V37.526H7.44505V33.242H8.71905ZM14.2404 43.126C13.5217 43.126 12.8684 42.9627 12.2804 42.636C11.7017 42.3093 11.2444 41.8473 10.9084 41.25C10.5817 40.6433 10.4184 39.9433 10.4184 39.15C10.4184 38.366 10.5864 37.6753 10.9224 37.078C11.2677 36.4713 11.7344 36.0093 12.3224 35.692C12.9104 35.3653 13.5684 35.202 14.2964 35.202C15.0244 35.202 15.6824 35.3653 16.2704 35.692C16.8584 36.0093 17.3204 36.4667 17.6564 37.064C18.0017 37.6613 18.1744 38.3567 18.1744 39.15C18.1744 39.9433 17.9971 40.6433 17.6424 41.25C17.2971 41.8473 16.8257 42.3093 16.2284 42.636C15.6311 42.9627 14.9684 43.126 14.2404 43.126ZM14.2404 42.006C14.6977 42.006 15.1271 41.8987 15.5284 41.684C15.9297 41.4693 16.2517 41.1473 16.4944 40.718C16.7464 40.2887 16.8724 39.766 16.8724 39.15C16.8724 38.534 16.7511 38.0113 16.5084 37.582C16.2657 37.1527 15.9484 36.8353 15.5564 36.63C15.1644 36.4153 14.7397 36.308 14.2824 36.308C13.8157 36.308 13.3864 36.4153 12.9944 36.63C12.6117 36.8353 12.3037 37.1527 12.0704 37.582C11.8371 38.0113 11.7204 38.534 11.7204 39.15C11.7204 39.7753 11.8324 40.3027 12.0564 40.732C12.2897 41.1613 12.5977 41.4833 12.9804 41.698C13.3631 41.9033 13.7831 42.006 14.2404 42.006ZM29.0755 35.188C29.6728 35.188 30.2048 35.314 30.6715 35.566C31.1382 35.8087 31.5068 36.1773 31.7775 36.672C32.0482 37.1667 32.1835 37.7687 32.1835 38.478V43H30.9235V38.66C30.9235 37.8947 30.7322 37.3113 30.3495 36.91C29.9762 36.4993 29.4675 36.294 28.8235 36.294C28.1608 36.294 27.6335 36.5087 27.2415 36.938C26.8495 37.358 26.6535 37.9693 26.6535 38.772V43H25.3935V38.66C25.3935 37.8947 25.2022 37.3113 24.8195 36.91C24.4462 36.4993 23.9375 36.294 23.2935 36.294C22.6308 36.294 22.1035 36.5087 21.7115 36.938C21.3195 37.358 21.1235 37.9693 21.1235 38.772V43H19.8495V35.328H21.1235V36.434C21.3755 36.0327 21.7115 35.7247 22.1315 35.51C22.5608 35.2953 23.0322 35.188 23.5455 35.188C24.1895 35.188 24.7588 35.3327 25.2535 35.622C25.7482 35.9113 26.1168 36.336 26.3595 36.896C26.5742 36.3547 26.9288 35.9347 27.4235 35.636C27.9182 35.3373 28.4688 35.188 29.0755 35.188ZM41.2733 38.87C41.2733 39.1127 41.2593 39.3693 41.2313 39.64H35.0993C35.146 40.396 35.4026 40.9887 35.8693 41.418C36.3453 41.838 36.9193 42.048 37.5913 42.048C38.142 42.048 38.5993 41.922 38.9633 41.67C39.3366 41.4087 39.598 41.0633 39.7473 40.634H41.1193C40.914 41.3713 40.5033 41.9733 39.8873 42.44C39.2713 42.8973 38.506 43.126 37.5913 43.126C36.8633 43.126 36.21 42.9627 35.6313 42.636C35.062 42.3093 34.614 41.8473 34.2873 41.25C33.9606 40.6433 33.7973 39.9433 33.7973 39.15C33.7973 38.3567 33.956 37.6613 34.2733 37.064C34.5906 36.4667 35.034 36.0093 35.6033 35.692C36.182 35.3653 36.8446 35.202 37.5913 35.202C38.3193 35.202 38.9633 35.3607 39.5233 35.678C40.0833 35.9953 40.5126 36.434 40.8113 36.994C41.1193 37.5447 41.2733 38.17 41.2733 38.87ZM39.9573 38.604C39.9573 38.1187 39.85 37.7033 39.6353 37.358C39.4206 37.0033 39.1266 36.7373 38.7533 36.56C38.3893 36.3733 37.9833 36.28 37.5353 36.28C36.8913 36.28 36.3406 36.4853 35.8833 36.896C35.4353 37.3067 35.1786 37.876 35.1133 38.604H39.9573Z" fill="white"/>
</svg>
