<svg width="42" height="49" viewBox="0 0 42 49" fill="none" xmlns="http://www.w3.org/2000/svg">
<path d="M18.0617 4.82633L12.2391 9.92134C11.7398 10.3583 12.0746 11.1343 12.7624 11.1343C13.1826 11.1343 13.5232 11.4489 13.5232 11.8371V15.0806C13.5232 17.871 13.5232 19.2662 14.4618 20.1331C15.4003 21 16.9108 21 19.9319 21H22.0681C25.0892 21 26.5997 21 27.5382 20.1331C28.4768 19.2662 28.4768 17.871 28.4768 15.0806V11.8371C28.4768 11.4489 28.8174 11.1343 29.2376 11.1343C29.9254 11.1343 30.2602 10.3583 29.7609 9.92134L23.9383 4.82633C22.5469 3.60878 21.8512 3 21 3C20.1488 3 19.4531 3.60878 18.0617 4.82633Z" stroke="#EADD1E" stroke-width="1.5" stroke-linecap="round" stroke-linejoin="round"/>
<path d="M21 16H21.009" stroke="#EADD1E" stroke-width="2" stroke-linecap="round" stroke-linejoin="round"/>
<path d="M8.82684 33.27V43H7.23084V38.744H2.65284V43H1.05684V33.27H2.65284V37.442H7.23084V33.27H8.82684ZM14.2739 43.126C13.5459 43.126 12.8879 42.9627 12.2999 42.636C11.7119 42.3 11.2499 41.8333 10.9139 41.236C10.5779 40.6293 10.4099 39.9293 10.4099 39.136C10.4099 38.352 10.5826 37.6567 10.9279 37.05C11.2733 36.4433 11.7446 35.9767 12.3419 35.65C12.9393 35.3233 13.6066 35.16 14.3439 35.16C15.0813 35.16 15.7486 35.3233 16.3459 35.65C16.9433 35.9767 17.4146 36.4433 17.7599 37.05C18.1053 37.6567 18.2779 38.352 18.2779 39.136C18.2779 39.92 18.1006 40.6153 17.7459 41.222C17.3913 41.8287 16.9059 42.3 16.2899 42.636C15.6833 42.9627 15.0113 43.126 14.2739 43.126ZM14.2739 41.74C14.6846 41.74 15.0673 41.642 15.4219 41.446C15.7859 41.25 16.0799 40.956 16.3039 40.564C16.5279 40.172 16.6399 39.696 16.6399 39.136C16.6399 38.576 16.5326 38.1047 16.3179 37.722C16.1033 37.33 15.8186 37.036 15.4639 36.84C15.1093 36.644 14.7266 36.546 14.3159 36.546C13.9053 36.546 13.5226 36.644 13.1679 36.84C12.8226 37.036 12.5473 37.33 12.3419 37.722C12.1366 38.1047 12.0339 38.576 12.0339 39.136C12.0339 39.9667 12.2439 40.6107 12.6639 41.068C13.0933 41.516 13.6299 41.74 14.2739 41.74ZM29.1937 35.16C29.8003 35.16 30.3417 35.286 30.8177 35.538C31.303 35.79 31.681 36.1633 31.9517 36.658C32.2317 37.1527 32.3717 37.75 32.3717 38.45V43H30.7897V38.688C30.7897 37.9973 30.617 37.47 30.2717 37.106C29.9263 36.7327 29.455 36.546 28.8577 36.546C28.2603 36.546 27.7843 36.7327 27.4297 37.106C27.0843 37.47 26.9117 37.9973 26.9117 38.688V43H25.3297V38.688C25.3297 37.9973 25.157 37.47 24.8117 37.106C24.4663 36.7327 23.995 36.546 23.3977 36.546C22.8003 36.546 22.3243 36.7327 21.9697 37.106C21.6243 37.47 21.4517 37.9973 21.4517 38.688V43H19.8557V35.286H21.4517V36.168C21.713 35.8507 22.0443 35.6033 22.4457 35.426C22.847 35.2487 23.2763 35.16 23.7337 35.16C24.3497 35.16 24.9003 35.2907 25.3857 35.552C25.871 35.8133 26.2443 36.1913 26.5057 36.686C26.739 36.2193 27.103 35.8507 27.5977 35.58C28.0923 35.3 28.6243 35.16 29.1937 35.16ZM41.4725 38.954C41.4725 39.2433 41.4539 39.5047 41.4165 39.738H35.5225C35.5692 40.354 35.7979 40.8487 36.2085 41.222C36.6192 41.5953 37.1232 41.782 37.7205 41.782C38.5792 41.782 39.1859 41.4227 39.5405 40.704H41.2625C41.0292 41.4133 40.6045 41.9967 39.9885 42.454C39.3819 42.902 38.6259 43.126 37.7205 43.126C36.9832 43.126 36.3205 42.9627 35.7325 42.636C35.1539 42.3 34.6965 41.8333 34.3605 41.236C34.0339 40.6293 33.8705 39.9293 33.8705 39.136C33.8705 38.3427 34.0292 37.6473 34.3465 37.05C34.6732 36.4433 35.1259 35.9767 35.7045 35.65C36.2925 35.3233 36.9645 35.16 37.7205 35.16C38.4485 35.16 39.0972 35.3187 39.6665 35.636C40.2359 35.9533 40.6792 36.4013 40.9965 36.98C41.3139 37.5493 41.4725 38.2073 41.4725 38.954ZM39.8065 38.45C39.7972 37.862 39.5872 37.3907 39.1765 37.036C38.7659 36.6813 38.2572 36.504 37.6505 36.504C37.0999 36.504 36.6285 36.6813 36.2365 37.036C35.8445 37.3813 35.6112 37.8527 35.5365 38.45H39.8065Z" fill="#EADD1E"/>
</svg>
