<svg width="25" height="25" viewBox="0 0 25 25" fill="none" xmlns="http://www.w3.org/2000/svg">
<path d="M11.4219 18.8472C11.4219 18.2949 11.8696 17.8472 12.4219 17.8472C12.9742 17.8472 13.4219 18.2949 13.4219 18.8472C13.4219 19.3995 12.9742 19.8472 12.4219 19.8472C11.8696 19.8472 11.4219 19.3995 11.4219 18.8472Z" stroke="#DFF4FF" stroke-width="2" stroke-linecap="round" stroke-linejoin="round"/>
<path d="M11.4219 12.8472C11.4219 12.2949 11.8696 11.8472 12.4219 11.8472C12.9742 11.8472 13.4219 12.2949 13.4219 12.8472C13.4219 13.3995 12.9742 13.8472 12.4219 13.8472C11.8696 13.8472 11.4219 13.3995 11.4219 12.8472Z" stroke="#DFF4FF" stroke-width="2" stroke-linecap="round" stroke-linejoin="round"/>
<path d="M11.4219 6.84717C11.4219 6.29488 11.8696 5.84717 12.4219 5.84717C12.9742 5.84717 13.4219 6.29488 13.4219 6.84717C13.4219 7.39945 12.9742 7.84717 12.4219 7.84717C11.8696 7.84717 11.4219 7.39945 11.4219 6.84717Z" stroke="#DFF4FF" stroke-width="2" stroke-linecap="round" stroke-linejoin="round"/>
</svg>
