<svg width="25" height="25" viewBox="0 0 25 25" fill="none" xmlns="http://www.w3.org/2000/svg">
<path d="M17.4219 20.8472C17.4219 19.1903 15.1833 17.8472 12.4219 17.8472C9.66045 17.8472 7.42188 19.1903 7.42188 20.8472M21.4219 17.8475C21.4219 16.6174 20.1878 15.5601 18.4219 15.0972M3.42188 17.8475C3.42188 16.6174 4.65597 15.5601 6.42188 15.0972M18.4219 11.0833C19.0356 10.534 19.4219 9.73567 19.4219 8.84717C19.4219 7.19031 18.0787 5.84717 16.4219 5.84717C15.6535 5.84717 14.9526 6.13602 14.4219 6.61106M6.42188 11.0833C5.80813 10.534 5.42188 9.73567 5.42188 8.84717C5.42188 7.19031 6.76502 5.84717 8.42188 5.84717C9.19023 5.84717 9.89112 6.13602 10.4219 6.61106M12.4219 14.8472C10.765 14.8472 9.42188 13.504 9.42188 11.8472C9.42188 10.1903 10.765 8.84717 12.4219 8.84717C14.0787 8.84717 15.4219 10.1903 15.4219 11.8472C15.4219 13.504 14.0787 14.8472 12.4219 14.8472Z" stroke="#DFF4FF" stroke-width="2" stroke-linecap="round" stroke-linejoin="round"/>
</svg>
