<svg width="56" height="45" viewBox="0 0 56 45" fill="none" xmlns="http://www.w3.org/2000/svg">
<path d="M21 9.92285C21 14.7747 25.2445 18.7869 27.1232 20.3252C27.3921 20.5454 27.5281 20.6568 27.7287 20.7132C27.8849 20.7572 28.1148 20.7572 28.271 20.7132C28.472 20.6567 28.6071 20.5463 28.877 20.3254C30.7557 18.7871 34.9999 14.7751 34.9999 9.9233C34.9999 8.08718 34.2625 6.32605 32.9497 5.02772C31.637 3.72939 29.8566 3 28.0001 3C26.1436 3 24.363 3.7295 23.0503 5.02783C21.7375 6.32616 21 8.08674 21 9.92285Z" stroke="white" stroke-width="2" stroke-linecap="round" stroke-linejoin="round"/>
<path d="M26 9C26 10.1046 26.8954 11 28 11C29.1046 11 30 10.1046 30 9C30 7.89543 29.1046 7 28 7C26.8954 7 26 7.89543 26 9Z" stroke="white" stroke-width="2" stroke-linecap="round" stroke-linejoin="round"/>
<path d="M10.4007 42V32.2H14.0687C14.8994 32.2 15.6134 32.3353 16.2107 32.606C16.808 32.8673 17.2654 33.25 17.5827 33.754C17.9094 34.2487 18.0727 34.8507 18.0727 35.56C18.0727 36.2507 17.9094 36.848 17.5827 37.352C17.2654 37.8467 16.808 38.2293 16.2107 38.5C15.6134 38.7707 14.8994 38.906 14.0687 38.906H10.9747L11.4367 38.416V42H10.4007ZM11.4367 38.5L10.9747 37.996H14.0407C15.0207 37.996 15.7627 37.786 16.2667 37.366C16.78 36.9367 17.0367 36.3347 17.0367 35.56C17.0367 34.776 16.78 34.1693 16.2667 33.74C15.7627 33.3107 15.0207 33.096 14.0407 33.096H10.9747L11.4367 32.606V38.5ZM18.2526 42L22.7326 32.2H23.7546L28.2346 42H27.1426L23.0266 32.802H23.4466L19.3306 42H18.2526ZM20.0166 39.382L20.3246 38.542H26.0226L26.3306 39.382H20.0166ZM31.2676 42V33.096H27.8236V32.2H35.7476V33.096H32.3036V42H31.2676ZM44.5706 32.2H45.5926V42H44.5706V32.2ZM38.4386 42H37.4026V32.2H38.4386V42ZM44.6686 37.478H38.3266V36.568H44.6686V37.478Z" fill="white"/>
</svg>
