<svg width="45" height="66" viewBox="0 0 45 66" fill="none" xmlns="http://www.w3.org/2000/svg">
<path d="M13.6775 46.75C6.61959 19.9375 16.6184 8.07812 22.5 5.5C28.3816 8.07812 38.3804 19.9375 31.3225 46.75C30.2566 45.8906 27 44.1719 22.5 44.1719C18 44.1719 14.7434 45.8906 13.6775 46.75Z" stroke="#FCFCFF" stroke-width="1.5" stroke-linecap="round" stroke-linejoin="round"/>
<path d="M26.25 24.75C26.25 21.7124 24.5711 19.25 22.5 19.25C20.4289 19.25 18.75 21.7124 18.75 24.75C18.75 27.7876 20.4289 30.25 22.5 30.25C24.5711 30.25 26.25 27.7876 26.25 24.75Z" stroke="#FCFCFF" stroke-width="1.5"/>
<path d="M32.8125 42.7834C35.5164 43.1498 38.8272 44.2259 41.2152 46.7501C41.2152 46.7501 42.1958 33.1765 33.75 30.25" stroke="#FCFCFF" stroke-width="1.5" stroke-linecap="round" stroke-linejoin="round"/>
<path d="M12.1875 42.7834C9.48364 43.1498 6.17281 44.2259 3.78483 46.7501C3.78483 46.7501 2.80416 33.1765 11.25 30.25" stroke="#FCFCFF" stroke-width="1.5" stroke-linecap="round" stroke-linejoin="round"/>
<path d="M17.8125 52.25C17.8125 52.25 18.5938 59.125 22.5 60.5C26.4062 59.125 27.1875 52.25 27.1875 52.25" stroke="#FCFCFF" stroke-width="1.5" stroke-linecap="round" stroke-linejoin="round"/>
</svg>
