<svg width="34" height="34" viewBox="0 0 34 34" fill="none" xmlns="http://www.w3.org/2000/svg">
<path d="M11.1229 24.3751C9.60987 25.2438 5.64283 27.0177 8.05903 29.2374C9.23932 30.3217 10.5539 31.0972 12.2066 31.0972H21.6372C23.2899 31.0972 24.6044 30.3217 25.7847 29.2374C28.2009 27.0177 24.2339 25.2438 22.7209 24.3751C19.1729 22.3379 14.6709 22.3379 11.1229 24.3751Z" stroke="#EADD1E" stroke-width="1.5" stroke-linecap="round" stroke-linejoin="round"/>
<path d="M21.7344 14.5972C21.7344 17.255 19.5797 19.4097 16.9219 19.4097C14.264 19.4097 12.1094 17.255 12.1094 14.5972C12.1094 11.9393 14.264 9.78467 16.9219 9.78467C19.5797 9.78467 21.7344 11.9393 21.7344 14.5972Z" stroke="#EADD1E" stroke-width="1.5"/>
<path d="M4.34613 22.8472C3.59126 21.1509 3.17188 19.2735 3.17188 17.2984C3.17188 9.73144 9.32796 3.59717 16.9219 3.59717C24.5158 3.59717 30.6719 9.73144 30.6719 17.2984C30.6719 19.2735 30.2525 21.1509 29.4976 22.8472" stroke="#EADD1E" stroke-width="1.5" stroke-linecap="round"/>
</svg>
