<svg width="27" height="27" viewBox="0 0 27 27" fill="none" xmlns="http://www.w3.org/2000/svg">
<circle cx="13.5" cy="13.5" r="13" fill="#EADD1E" stroke="#131A22"/>
<mask id="path-2-outside-1_326_419" maskUnits="userSpaceOnUse" x="8" y="4" width="12" height="18" fill="black">
<rect fill="white" x="8" y="4" width="12" height="18"/>
<path d="M13.8991 5.56C15.2858 5.56 16.3991 5.94 17.2391 6.7C18.0925 7.44667 18.5191 8.48 18.5191 9.8C18.5191 11.1067 18.0991 12.1067 17.2591 12.8C16.4191 13.48 15.3058 13.82 13.9191 13.82L13.8391 15.36H11.3791L11.2791 11.96H12.1791C13.3391 11.96 14.2325 11.8067 14.8591 11.5C15.4858 11.1933 15.7991 10.6333 15.7991 9.82C15.7991 9.23333 15.6258 8.76667 15.2791 8.42C14.9458 8.07333 14.4858 7.9 13.8991 7.9C13.2858 7.9 12.8058 8.06667 12.4591 8.4C12.1258 8.73333 11.9591 9.19333 11.9591 9.78H9.31914C9.30581 8.96667 9.47914 8.24 9.83914 7.6C10.1991 6.96 10.7258 6.46 11.4191 6.1C12.1258 5.74 12.9525 5.56 13.8991 5.56ZM12.5991 20.14C12.0925 20.14 11.6725 19.9867 11.3391 19.68C11.0191 19.36 10.8591 18.9667 10.8591 18.5C10.8591 18.0333 11.0191 17.6467 11.3391 17.34C11.6725 17.02 12.0925 16.86 12.5991 16.86C13.0925 16.86 13.4991 17.02 13.8191 17.34C14.1391 17.6467 14.2991 18.0333 14.2991 18.5C14.2991 18.9667 14.1391 19.36 13.8191 19.68C13.4991 19.9867 13.0925 20.14 12.5991 20.14Z"/>
</mask>
<path d="M13.8991 5.56C15.2858 5.56 16.3991 5.94 17.2391 6.7C18.0925 7.44667 18.5191 8.48 18.5191 9.8C18.5191 11.1067 18.0991 12.1067 17.2591 12.8C16.4191 13.48 15.3058 13.82 13.9191 13.82L13.8391 15.36H11.3791L11.2791 11.96H12.1791C13.3391 11.96 14.2325 11.8067 14.8591 11.5C15.4858 11.1933 15.7991 10.6333 15.7991 9.82C15.7991 9.23333 15.6258 8.76667 15.2791 8.42C14.9458 8.07333 14.4858 7.9 13.8991 7.9C13.2858 7.9 12.8058 8.06667 12.4591 8.4C12.1258 8.73333 11.9591 9.19333 11.9591 9.78H9.31914C9.30581 8.96667 9.47914 8.24 9.83914 7.6C10.1991 6.96 10.7258 6.46 11.4191 6.1C12.1258 5.74 12.9525 5.56 13.8991 5.56ZM12.5991 20.14C12.0925 20.14 11.6725 19.9867 11.3391 19.68C11.0191 19.36 10.8591 18.9667 10.8591 18.5C10.8591 18.0333 11.0191 17.6467 11.3391 17.34C11.6725 17.02 12.0925 16.86 12.5991 16.86C13.0925 16.86 13.4991 17.02 13.8191 17.34C14.1391 17.6467 14.2991 18.0333 14.2991 18.5C14.2991 18.9667 14.1391 19.36 13.8191 19.68C13.4991 19.9867 13.0925 20.14 12.5991 20.14Z" fill="white"/>
<path d="M17.2391 6.7L16.5682 7.44154L16.5744 7.44711L16.5806 7.45258L17.2391 6.7ZM17.2591 12.8L17.8884 13.5773L17.8957 13.5712L17.2591 12.8ZM13.9191 13.82V12.82H12.9697L12.9205 13.7681L13.9191 13.82ZM13.8391 15.36V16.36H14.7885L14.8378 15.4119L13.8391 15.36ZM11.3791 15.36L10.3796 15.3894L10.4081 16.36H11.3791V15.36ZM11.2791 11.96V10.96H10.2493L10.2796 11.9894L11.2791 11.96ZM14.8591 11.5L14.4196 10.6018V10.6018L14.8591 11.5ZM15.2791 8.42L14.5583 9.11311L14.5651 9.12017L14.572 9.12711L15.2791 8.42ZM12.4591 8.4L11.766 7.67917L11.759 7.68596L11.752 7.69289L12.4591 8.4ZM11.9591 9.78V10.78H12.9591V9.78H11.9591ZM9.31914 9.78L8.31927 9.79639L8.3354 10.78H9.31914V9.78ZM9.83914 7.6L10.7107 8.09026V8.09026L9.83914 7.6ZM11.4191 6.1L10.9652 5.20893L10.9583 5.2125L11.4191 6.1ZM11.3391 19.68L10.632 20.3871L10.6468 20.4018L10.6621 20.4159L11.3391 19.68ZM11.3391 17.34L12.031 18.062L12.0317 18.0614L11.3391 17.34ZM13.8191 17.34L13.112 18.0471L13.1196 18.0546L13.1272 18.062L13.8191 17.34ZM13.8191 19.68L14.511 20.402L14.5187 20.3946L14.5262 20.3871L13.8191 19.68ZM13.8991 6.56C15.0961 6.56 15.9511 6.8832 16.5682 7.44154L17.9101 5.95846C16.8472 4.9968 15.4755 4.56 13.8991 4.56V6.56ZM16.5806 7.45258C17.1805 7.97745 17.5191 8.71609 17.5191 9.8H19.5191C19.5191 8.24391 19.0045 6.91588 17.8976 5.94742L16.5806 7.45258ZM17.5191 9.8C17.5191 10.8741 17.186 11.5637 16.6226 12.0288L17.8957 13.5712C19.0122 12.6496 19.5191 11.3392 19.5191 9.8H17.5191ZM16.6299 12.0228C16.0132 12.522 15.1426 12.82 13.9191 12.82V14.82C15.469 14.82 16.8251 14.438 17.8883 13.5772L16.6299 12.0228ZM12.9205 13.7681L12.8405 15.3081L14.8378 15.4119L14.9178 13.8719L12.9205 13.7681ZM13.8391 14.36H11.3791V16.36H13.8391V14.36ZM12.3787 15.3306L12.2787 11.9306L10.2796 11.9894L10.3796 15.3894L12.3787 15.3306ZM11.2791 12.96H12.1791V10.96H11.2791V12.96ZM12.1791 12.96C13.403 12.96 14.4732 12.8022 15.2987 12.3982L14.4196 10.6018C13.9917 10.8112 13.2753 10.96 12.1791 10.96V12.96ZM15.2987 12.3982C15.778 12.1637 16.1721 11.8114 16.4368 11.3383C16.6964 10.8743 16.7991 10.3528 16.7991 9.82H14.7991C14.7991 10.1006 14.7452 10.2657 14.6915 10.3617C14.6428 10.4486 14.5669 10.5297 14.4196 10.6018L15.2987 12.3982ZM16.7991 9.82C16.7991 9.02399 16.5566 8.28322 15.9862 7.71289L14.572 9.12711C14.695 9.25011 14.7991 9.44268 14.7991 9.82H16.7991ZM16 7.72689C15.4379 7.14231 14.6937 6.9 13.8991 6.9V8.9C14.2779 8.9 14.4537 9.00435 14.5583 9.11311L16 7.72689ZM13.8991 6.9C13.1016 6.9 12.3464 7.12115 11.766 7.67917L13.1522 9.12083C13.2652 9.01218 13.47 8.9 13.8991 8.9V6.9ZM11.752 7.69289C11.1877 8.25726 10.9591 8.99671 10.9591 9.78H12.9591C12.9591 9.38995 13.0639 9.20941 13.1662 9.10711L11.752 7.69289ZM11.9591 8.78H9.31914V10.78H11.9591V8.78ZM10.319 9.76361C10.3083 9.10794 10.4468 8.5595 10.7107 8.09026L8.96757 7.10974C8.51151 7.9205 8.30336 8.82539 8.31927 9.79639L10.319 9.76361ZM10.7107 8.09026C10.9691 7.63083 11.3477 7.26386 11.88 6.98749L10.9583 5.2125C10.1039 5.65613 9.42913 6.28917 8.96757 7.10974L10.7107 8.09026ZM11.8731 6.99104C12.4144 6.71527 13.0799 6.56 13.8991 6.56V4.56C12.825 4.56 11.8372 4.76473 10.9652 5.20896L11.8731 6.99104ZM12.5991 19.14C12.3112 19.14 12.1426 19.0604 12.0162 18.9441L10.6621 20.4159C11.2024 20.913 11.8738 21.14 12.5991 21.14V19.14ZM12.0462 18.9729C11.9202 18.8469 11.8591 18.7107 11.8591 18.5H9.85914C9.85914 19.2226 10.1181 19.8731 10.632 20.3871L12.0462 18.9729ZM11.8591 18.5C11.8591 18.2898 11.9192 18.1692 12.031 18.062L10.6472 16.618C10.1191 17.1242 9.85914 17.7769 9.85914 18.5H11.8591ZM12.0317 18.0614C12.16 17.9382 12.3234 17.86 12.5991 17.86V15.86C11.8615 15.86 11.1849 16.1018 10.6466 16.6186L12.0317 18.0614ZM12.5991 17.86C12.8536 17.86 12.9974 17.9325 13.112 18.0471L14.5262 16.6329C14.0009 16.1075 13.3314 15.86 12.5991 15.86V17.86ZM13.1272 18.062C13.2391 18.1692 13.2991 18.2898 13.2991 18.5H15.2991C15.2991 17.7769 15.0392 17.1242 14.511 16.618L13.1272 18.062ZM13.2991 18.5C13.2991 18.7107 13.2381 18.8469 13.112 18.9729L14.5262 20.3871C15.0402 19.8731 15.2991 19.2226 15.2991 18.5H13.2991ZM13.1272 18.958C13.0151 19.0655 12.8663 19.14 12.5991 19.14V21.14C13.3186 21.14 13.9832 20.9079 14.511 20.402L13.1272 18.958Z" fill="black" mask="url(#path-2-outside-1_326_419)"/>
</svg>
