<svg width="40" height="37" viewBox="0 0 40 37" fill="none" xmlns="http://www.w3.org/2000/svg">
<circle cx="20" cy="18" r="2" stroke="#EADD1E" stroke-width="1.5" stroke-linecap="round"/>
<path d="M12 24.001C10.7442 22.3295 10 20.2516 10 18C10 12.4772 14.4772 8 20 8C25.5228 8 30 12.4772 30 18C30 20.2516 29.2558 22.3295 28 24.001" stroke="#EADD1E" stroke-width="1.5" stroke-linecap="round"/>
<path d="M15.5278 22C14.5777 20.9385 14 19.5367 14 18C14 14.6863 16.6863 12 20 12C23.3137 12 26 14.6863 26 18C26 19.5367 25.4223 20.9385 24.4722 22" stroke="#EADD1E" stroke-width="1.5" stroke-linecap="round"/>
<path d="M17.9515 24.8759C18.7222 23.758 19.1076 23.199 19.6078 23.0553C19.8644 22.9816 20.1356 22.9816 20.3922 23.0553C20.8924 23.199 21.2778 23.758 22.0485 24.8759C23.074 26.3633 23.5867 27.1071 23.488 27.727C23.4379 28.0414 23.2938 28.3315 23.076 28.5565C22.6465 29 21.7643 29 20 29C18.2357 29 17.3535 29 16.924 28.5565C16.7062 28.3315 16.5621 28.0414 16.512 27.727C16.4133 27.1071 16.926 26.3633 17.9515 24.8759Z" stroke="#EADD1E" stroke-width="1.5" stroke-linecap="round" stroke-linejoin="round"/>
<path d="M39.5 18.5C39.5 28.4051 30.807 36.5 20 36.5C9.19303 36.5 0.5 28.4051 0.5 18.5C0.5 8.59486 9.19303 0.5 20 0.5C30.807 0.5 39.5 8.59486 39.5 18.5Z" stroke="#EADD1E"/>
</svg>
