<svg width="82" height="35" viewBox="0 0 82 35" fill="none" xmlns="http://www.w3.org/2000/svg">
<mask id="path-1-inside-1_190_1117" fill="white">
<path fill-rule="evenodd" clip-rule="evenodd" d="M0.0902748 34.6375C6.95924 30.5581 11.541 23.2224 11.541 14.8511C11.541 9.44331 9.62905 4.46773 6.42371 0.522949H64.2773C73.6978 0.522949 81.3346 8.15975 81.3346 17.5802C81.3346 27.0007 73.6978 34.6375 64.2773 34.6375H0.0902748Z"/>
</mask>
<path fill-rule="evenodd" clip-rule="evenodd" d="M0.0902748 34.6375C6.95924 30.5581 11.541 23.2224 11.541 14.8511C11.541 9.44331 9.62905 4.46773 6.42371 0.522949H64.2773C73.6978 0.522949 81.3346 8.15975 81.3346 17.5802C81.3346 27.0007 73.6978 34.6375 64.2773 34.6375H0.0902748Z" fill="#32373F"/>
<path d="M0.0902748 34.6375L-0.445136 33.7359L-3.72876 35.686H0.0902748V34.6375ZM6.42371 0.522949V-0.525594H4.22066L5.60994 1.18418L6.42371 0.522949ZM10.4924 14.8511C10.4924 22.8264 6.12874 29.8318 -0.445136 33.7359L0.625685 35.539C7.78974 31.2844 12.5895 23.6185 12.5895 14.8511H10.4924ZM5.60994 1.18418C8.67102 4.95142 10.4924 9.69593 10.4924 14.8511H12.5895C12.5895 9.19068 10.5871 3.98405 7.23748 -0.13828L5.60994 1.18418ZM6.42371 1.57149H64.2773V-0.525594H6.42371V1.57149ZM64.2773 1.57149C73.1186 1.57149 80.286 8.73884 80.286 17.5802H82.3831C82.3831 7.58065 74.2768 -0.525594 64.2773 -0.525594V1.57149ZM80.286 17.5802C80.286 26.4216 73.1187 33.5889 64.2773 33.5889V35.686C74.2769 35.686 82.3831 27.5798 82.3831 17.5802H80.286ZM64.2773 33.5889H0.0902748V35.686H64.2773V33.5889Z" fill="url(#paint0_linear_190_1117)" fill-opacity="0.3" mask="url(#path-1-inside-1_190_1117)"/>
<defs>
<linearGradient id="paint0_linear_190_1117" x1="40.7124" y1="0.522949" x2="40.7124" y2="34.6375" gradientUnits="userSpaceOnUse">
<stop stop-color="white" stop-opacity="0.3"/>
<stop offset="1" stop-opacity="0.3"/>
</linearGradient>
</defs>
</svg>
