<svg width="56" height="45" viewBox="0 0 56 45" fill="none" xmlns="http://www.w3.org/2000/svg">
<path d="M28 20.5C29.8097 20.5 31.5451 20.3212 33.1534 19.9934C35.1623 19.5839 36.1668 19.3791 37.0834 18.2006C38 17.0221 38 15.6693 38 12.9635V11.0365C38 8.33073 38 6.97787 37.0834 5.79937C36.1668 4.62088 35.1623 4.41613 33.1534 4.00662C31.5451 3.67877 29.8097 3.5 28 3.5C26.1903 3.5 24.4549 3.67877 22.8466 4.00662C20.8377 4.41613 19.8332 4.62088 18.9166 5.79937C18 6.97787 18 8.33073 18 11.0365V12.9635C18 15.6693 18 17.0221 18.9166 18.2006C19.8332 19.3791 20.8377 19.5839 22.8466 19.9934C24.4549 20.3212 26.1903 20.5 28 20.5Z" stroke="white" stroke-width="1.5"/>
<path d="M31.9621 12.3129C31.8137 12.9187 31.0241 13.3538 29.4449 14.2241C27.7272 15.1705 26.8684 15.6438 26.1728 15.4615C25.9372 15.3997 25.7202 15.2911 25.538 15.1438C25 14.7089 25 13.8059 25 12C25 10.1941 25 9.29112 25.538 8.85618C25.7202 8.70886 25.9372 8.60029 26.1728 8.53854C26.8684 8.35621 27.7272 8.82945 29.4449 9.77593C31.0241 10.6462 31.8137 11.0813 31.9621 11.6871C32.0126 11.8933 32.0126 12.1067 31.9621 12.3129Z" stroke="white" stroke-width="1.5" stroke-linejoin="round"/>
<path d="M13.9043 42V33.096H10.4603V32.2H18.3843V33.096H14.9403V42H13.9043ZM22.676 42.07C22.0506 42.07 21.5046 41.9533 21.038 41.72C20.5713 41.4867 20.2073 41.1367 19.946 40.67C19.694 40.2033 19.568 39.62 19.568 38.92V34.65H20.562V38.808C20.562 39.592 20.7533 40.1847 21.136 40.586C21.528 40.978 22.074 41.174 22.774 41.174C23.2873 41.174 23.7306 41.0713 24.104 40.866C24.4866 40.6513 24.776 40.3433 24.972 39.942C25.1773 39.5407 25.28 39.06 25.28 38.5V34.65H26.274V42H25.322V39.984L25.476 40.348C25.2426 40.8893 24.8786 41.314 24.384 41.622C23.8986 41.9207 23.3293 42.07 22.676 42.07ZM32.8382 42.07C32.1942 42.07 31.6155 41.9253 31.1022 41.636C30.5889 41.3373 30.1829 40.908 29.8842 40.348C29.5855 39.788 29.4362 39.1113 29.4362 38.318C29.4362 37.5153 29.5855 36.8387 29.8842 36.288C30.1922 35.728 30.6029 35.3033 31.1162 35.014C31.6295 34.7247 32.2035 34.58 32.8382 34.58C33.5382 34.58 34.1635 34.7387 34.7142 35.056C35.2742 35.364 35.7129 35.798 36.0302 36.358C36.3475 36.918 36.5062 37.5713 36.5062 38.318C36.5062 39.0553 36.3475 39.7087 36.0302 40.278C35.7129 40.838 35.2742 41.2767 34.7142 41.594C34.1635 41.9113 33.5382 42.07 32.8382 42.07ZM29.0442 42V31.612H30.0382V36.82L29.8982 38.304L29.9962 39.788V42H29.0442ZM32.7682 41.188C33.2909 41.188 33.7575 41.0713 34.1682 40.838C34.5789 40.5953 34.9055 40.2593 35.1482 39.83C35.3909 39.3913 35.5122 38.8873 35.5122 38.318C35.5122 37.7393 35.3909 37.2353 35.1482 36.806C34.9055 36.3767 34.5789 36.0453 34.1682 35.812C33.7575 35.5693 33.2909 35.448 32.7682 35.448C32.2455 35.448 31.7742 35.5693 31.3542 35.812C30.9435 36.0453 30.6169 36.3767 30.3742 36.806C30.1409 37.2353 30.0242 37.7393 30.0242 38.318C30.0242 38.8873 30.1409 39.3913 30.3742 39.83C30.6169 40.2593 30.9435 40.5953 31.3542 40.838C31.7742 41.0713 32.2455 41.188 32.7682 41.188ZM41.6545 42.07C40.8892 42.07 40.2172 41.9113 39.6385 41.594C39.0598 41.2673 38.6072 40.824 38.2805 40.264C37.9538 39.6947 37.7905 39.046 37.7905 38.318C37.7905 37.59 37.9445 36.946 38.2525 36.386C38.5698 35.826 38.9992 35.3873 39.5405 35.07C40.0912 34.7433 40.7072 34.58 41.3885 34.58C42.0792 34.58 42.6905 34.7387 43.2225 35.056C43.7638 35.364 44.1885 35.8027 44.4965 36.372C44.8045 36.932 44.9585 37.5807 44.9585 38.318C44.9585 38.3647 44.9538 38.416 44.9445 38.472C44.9445 38.5187 44.9445 38.57 44.9445 38.626H38.5465V37.884H44.4125L44.0205 38.178C44.0205 37.646 43.9038 37.1747 43.6705 36.764C43.4465 36.344 43.1385 36.0173 42.7465 35.784C42.3545 35.5507 41.9018 35.434 41.3885 35.434C40.8845 35.434 40.4318 35.5507 40.0305 35.784C39.6292 36.0173 39.3165 36.344 39.0925 36.764C38.8685 37.184 38.7565 37.6647 38.7565 38.206V38.36C38.7565 38.92 38.8778 39.4147 39.1205 39.844C39.3725 40.264 39.7178 40.5953 40.1565 40.838C40.6045 41.0713 41.1132 41.188 41.6825 41.188C42.1305 41.188 42.5458 41.1087 42.9285 40.95C43.3205 40.7913 43.6565 40.5487 43.9365 40.222L44.4965 40.866C44.1698 41.258 43.7592 41.5567 43.2645 41.762C42.7792 41.9673 42.2425 42.07 41.6545 42.07Z" fill="white"/>
</svg>
