<svg width="50" height="45" viewBox="0 0 50 45" fill="none" xmlns="http://www.w3.org/2000/svg">
<path d="M33.7104 8.70122L34.9186 12.7288C34.9578 12.8592 34.9773 12.9244 34.9879 12.9914L34.9908 13.0118C35 13.079 35 13.147 35 13.2831C35 16.7797 35 18.528 33.9812 19.6669C33.8824 19.7774 33.7774 19.8824 33.6669 19.9812C32.528 21 30.7797 21 27.2831 21H22.7169C19.2203 21 17.472 21 16.3331 19.9812C16.2226 19.8824 16.1176 19.7774 16.0188 19.6669C15 18.528 15 16.7797 15 13.2831C15 13.147 15 13.079 15.0092 13.0118L15.0122 12.9914C15.0227 12.9244 15.0422 12.8592 15.0814 12.7288L16.2896 8.70122C17.1135 5.95484 17.5255 4.58166 18.5884 3.79083C19.6513 3 21.0849 3 23.9522 3H26.0478C28.9151 3 30.3487 3 31.4116 3.79083C32.4745 4.58166 32.8865 5.95484 33.7104 8.70122Z" stroke="#EADD1E" stroke-width="1.5"/>
<path d="M15 13H35" stroke="#EADD1E" stroke-width="1.5" stroke-linejoin="round"/>
<path d="M30.9888 17H31M26 17H26.0112" stroke="#EADD1E" stroke-width="2" stroke-linecap="round" stroke-linejoin="round"/>
<path d="M6.46848 42L3.16448 32.2H4.22848L7.32248 41.426H6.79048L9.98249 32.2H10.9345L14.0845 41.426H13.5805L16.7025 32.2H17.6965L14.3925 42H13.3005L10.2905 33.25H10.5705L7.54648 42H6.46848ZM23.4315 42V40.376L23.3895 40.11V37.394C23.3895 36.7687 23.2121 36.288 22.8575 35.952C22.5121 35.616 21.9941 35.448 21.3035 35.448C20.8275 35.448 20.3748 35.5273 19.9455 35.686C19.5161 35.8447 19.1521 36.0547 18.8535 36.316L18.4055 35.574C18.7788 35.2567 19.2268 35.014 19.7495 34.846C20.2721 34.6687 20.8228 34.58 21.4015 34.58C22.3535 34.58 23.0861 34.818 23.5995 35.294C24.1221 35.7607 24.3835 36.4747 24.3835 37.436V42H23.4315ZM20.8975 42.07C20.3468 42.07 19.8661 41.9813 19.4555 41.804C19.0541 41.6173 18.7461 41.3653 18.5315 41.048C18.3168 40.7213 18.2095 40.348 18.2095 39.928C18.2095 39.5453 18.2981 39.2 18.4755 38.892C18.6621 38.5747 18.9608 38.3227 19.3715 38.136C19.7915 37.94 20.3515 37.842 21.0515 37.842H23.5855V38.584H21.0795C20.3701 38.584 19.8755 38.71 19.5955 38.962C19.3248 39.214 19.1895 39.5267 19.1895 39.9C19.1895 40.32 19.3528 40.656 19.6795 40.908C20.0061 41.16 20.4635 41.286 21.0515 41.286C21.6115 41.286 22.0921 41.16 22.4935 40.908C22.9041 40.6467 23.2028 40.2733 23.3895 39.788L23.6135 40.474C23.4268 40.9593 23.1001 41.3467 22.6335 41.636C22.1761 41.9253 21.5975 42.07 20.8975 42.07ZM27.0833 42V31.612H28.0773V42H27.0833ZM30.843 42V31.612H31.837V42H30.843ZM37.7248 42.07C36.9595 42.07 36.2875 41.9113 35.7088 41.594C35.1301 41.2673 34.6775 40.824 34.3508 40.264C34.0241 39.6947 33.8608 39.046 33.8608 38.318C33.8608 37.59 34.0148 36.946 34.3228 36.386C34.6401 35.826 35.0695 35.3873 35.6108 35.07C36.1615 34.7433 36.7775 34.58 37.4588 34.58C38.1495 34.58 38.7608 34.7387 39.2928 35.056C39.8341 35.364 40.2588 35.8027 40.5668 36.372C40.8748 36.932 41.0288 37.5807 41.0288 38.318C41.0288 38.3647 41.0241 38.416 41.0148 38.472C41.0148 38.5187 41.0148 38.57 41.0148 38.626H34.6168V37.884H40.4828L40.0908 38.178C40.0908 37.646 39.9741 37.1747 39.7408 36.764C39.5168 36.344 39.2088 36.0173 38.8168 35.784C38.4248 35.5507 37.9721 35.434 37.4588 35.434C36.9548 35.434 36.5021 35.5507 36.1008 35.784C35.6995 36.0173 35.3868 36.344 35.1628 36.764C34.9388 37.184 34.8268 37.6647 34.8268 38.206V38.36C34.8268 38.92 34.9481 39.4147 35.1908 39.844C35.4428 40.264 35.7881 40.5953 36.2268 40.838C36.6748 41.0713 37.1835 41.188 37.7528 41.188C38.2008 41.188 38.6161 41.1087 38.9988 40.95C39.3908 40.7913 39.7268 40.5487 40.0068 40.222L40.5668 40.866C40.2401 41.258 39.8295 41.5567 39.3348 41.762C38.8495 41.9673 38.3128 42.07 37.7248 42.07ZM45.376 42.07C44.6853 42.07 44.1533 41.8833 43.78 41.51C43.4067 41.1367 43.22 40.6093 43.22 39.928V33.026H44.214V39.872C44.214 40.3013 44.3213 40.6327 44.536 40.866C44.76 41.0993 45.0773 41.216 45.488 41.216C45.9267 41.216 46.2907 41.09 46.58 40.838L46.93 41.552C46.734 41.7293 46.496 41.86 46.216 41.944C45.9453 42.028 45.6653 42.07 45.376 42.07ZM41.904 35.476V34.65H46.454V35.476H41.904Z" fill="#EADD1E"/>
</svg>
