<svg width="25" height="25" viewBox="0 0 25 25" fill="none" xmlns="http://www.w3.org/2000/svg">
<path d="M15.4218 10.847L11.4218 14.847L9.42183 12.847M13.6679 4.30596L14.8889 5.34646C15.1965 5.6086 15.5784 5.76708 15.9813 5.79923L17.5803 5.92666C18.5205 6.00169 19.2672 6.74796 19.3422 7.68809L19.4694 9.2874C19.5015 9.69027 19.6606 10.0728 19.9227 10.3804L20.9627 11.601C21.5745 12.3188 21.5746 13.3747 20.9628 14.0925L19.9228 15.3133C19.6607 15.6209 19.5018 16.0036 19.4697 16.4064L19.3417 18.0055C19.2667 18.9456 18.5211 19.6924 17.581 19.7674L15.9814 19.895C15.5785 19.9272 15.1962 20.0852 14.8886 20.3474L13.6679 21.3879C12.9501 21.9996 11.8936 21.9997 11.1757 21.388L9.95503 20.3475C9.64743 20.0853 9.26513 19.927 8.86226 19.8948L7.26265 19.7674C6.32252 19.6924 5.57693 18.9458 5.50191 18.0057L5.37398 16.4065C5.34183 16.0037 5.18299 15.6214 4.92085 15.3138L3.88081 14.0926C3.26909 13.3748 3.2688 12.3192 3.88052 11.6014L4.9215 10.3802C5.18364 10.0726 5.34095 9.69027 5.3731 9.28741L5.50103 7.68829C5.57605 6.74815 6.32379 6.00159 7.26392 5.92657L8.86177 5.79913C9.26463 5.76698 9.64712 5.60863 9.95472 5.34649L11.1758 4.30596C11.8937 3.69424 12.9501 3.69424 13.6679 4.30596Z" stroke="#0DA6C2" stroke-width="2" stroke-linecap="round" stroke-linejoin="round"/>
</svg>
