<svg width="40" height="40" viewBox="0 0 46 45" fill="none" xmlns="http://www.w3.org/2000/svg">
<circle cx="22" cy="20" r="19.5" stroke="#EADD1E"/>
<path d="M10.4261 28L16.3261 19.88V21.84L10.7061 14H13.6461L17.8261 19.8L16.6261 19.82L20.7661 14H23.5861L18.0061 21.7V19.82L23.9461 28H20.9461L16.5461 21.84H17.7261L13.3861 28H10.4261ZM24.8133 28V26.26L30.3733 20.98C30.8399 20.54 31.1866 20.1533 31.4133 19.82C31.6399 19.4867 31.7866 19.18 31.8533 18.9C31.9333 18.6067 31.9733 18.3333 31.9733 18.08C31.9733 17.44 31.7533 16.9467 31.3133 16.6C30.8733 16.24 30.2266 16.06 29.3733 16.06C28.6933 16.06 28.0733 16.18 27.5133 16.42C26.9666 16.66 26.4933 17.0267 26.0933 17.52L24.2733 16.12C24.8199 15.3867 25.5533 14.82 26.4733 14.42C27.4066 14.0067 28.4466 13.8 29.5933 13.8C30.6066 13.8 31.4866 13.9667 32.2333 14.3C32.9933 14.62 33.5733 15.08 33.9733 15.68C34.3866 16.28 34.5933 16.9933 34.5933 17.82C34.5933 18.2733 34.5333 18.7267 34.4133 19.18C34.2933 19.62 34.0666 20.0867 33.7333 20.58C33.3999 21.0733 32.9133 21.6267 32.2733 22.24L27.4933 26.78L26.9533 25.8H35.1333V28H24.8133Z" fill="#EADD1E"/>
</svg>
