<svg width="40" height="40" viewBox="0 0 40 40" fill="none" xmlns="http://www.w3.org/2000/svg">
<circle cx="20" cy="20" r="19.5" stroke="#EADD1E"/>
<path d="M20 27.5C21.8097 27.5 23.5451 27.3212 25.1534 26.9934C27.1623 26.5839 28.1668 26.3791 29.0834 25.2006C30 24.0221 30 22.6693 30 19.9635V18.0365C30 15.3307 30 13.9779 29.0834 12.7994C28.1668 11.6209 27.1623 11.4161 25.1534 11.0066C23.5451 10.6788 21.8097 10.5 20 10.5C18.1903 10.5 16.4549 10.6788 14.8466 11.0066C12.8377 11.4161 11.8332 11.6209 10.9166 12.7994C10 13.9779 10 15.3307 10 18.0365V19.9635C10 22.6693 10 24.0221 10.9166 25.2006C11.8332 26.3791 12.8377 26.5839 14.8466 26.9934C16.4549 27.3212 18.1903 27.5 20 27.5Z" stroke="#EADD1E" stroke-width="1.5"/>
<path d="M23.9621 19.3129C23.8137 19.9187 23.0241 20.3538 21.4449 21.2241C19.7272 22.1705 18.8684 22.6438 18.1728 22.4615C17.9372 22.3997 17.7202 22.2911 17.538 22.1438C17 21.7089 17 20.8059 17 19C17 17.1941 17 16.2911 17.538 15.8562C17.7202 15.7089 17.9372 15.6003 18.1728 15.5385C18.8684 15.3562 19.7272 15.8295 21.4449 16.7759C23.0241 17.6462 23.8137 18.0813 23.9621 18.6871C24.0126 18.8933 24.0126 19.1067 23.9621 19.3129Z" stroke="#EADD1E" stroke-width="1.5" stroke-linejoin="round"/>
</svg>
